PathFileType	4	(X/Y/Z)	Patient4_TMGait_0pt4_03_left_13.trc.trc
DataRate	CameraRate	NumFrames	NumMarkers	Units	OrigDataRate	OrigDataStartFrame	OrigNumFrames
78.651685393258	78.651685393258	5	33	mm	78.651685393258	36	       141
Frame#	Time	Sacral			L.Shoulder			Chest			R.Shoulder			Neck			R.ASIS			L.ASIS			R.Thigh.Superior			R.Thigh.Lateral			R.Thigh.Inferior			R.Patella			L.Thigh.Superior			L.Thigh.Lateral			L.Thigh.Inferior			L.Patella			L.Shank.Superior			L.Shank.Lateral			L.Shank.Inferior			R.Shank.Superior			R.Shank.Lateral			R.Shank.Inferior			R.Heel			R.Midfoot.Superior			R.Midfoot.Lateral			R.Toe			L.Heel			L.Midfoot.Lateral			L.Midfoot.Superior			L.Toe			L.Elbow			L.Wrist			R.Elbow			R.Wrist			
		X1	Y1	Z1	X2	Y2	Z2	X3	Y3	Z3	X4	Y4	Z4	X5	Y5	Z5	X6	Y6	Z6	X7	Y7	Z7	X8	Y8	Z8	X9	Y9	Z9	X10	Y10	Z10	X11	Y11	Z11	X12	Y12	Z12	X13	Y13	Z13	X14	Y14	Z14	X15	Y15	Z15	X16	Y16	Z16	X17	Y17	Z17	X18	Y18	Z18	X19	Y19	Z19	X20	Y20	Z20	X21	Y21	Z21	X22	Y22	Z22	X23	Y23	Z23	X24	Y24	Z24	X25	Y25	Z25	X26	Y26	Z26	X27	Y27	Z27	X28	Y28	Z28	X29	Y29	Z29	X30	Y30	Z30	X31	Y31	Z31	X32	Y32	Z32	X33	Y33	Z33	

36	17.215000000000	809.889755367571	999.638269589430	481.806183680365	945.141649979002	1419.346504961952	259.747909302170	1076.860946247409	1361.160082544675	403.027522144830	1023.799278636247	1441.526006944377	585.837044084619	954.815799381044	1488.895841418101	413.237639898856	1050.878355680013	935.967542003367	569.002843771895	1004.025520301440	956.718764749389	297.926976100493	1065.911638796108	724.060813173827	541.576336550625	979.999942977743	619.727078116527	611.393684359434	1044.723143519715	558.208146036905	528.517405896035	1032.490147907414	456.513325815251	544.519459614387	1081.065208936448	762.308354781934	322.067283991094	1006.240069817527	635.891558529313	263.846173122614	1107.410414008873	570.610524173440	316.807704301043	1118.218807409722	500.121930424691	322.417264094426	1094.120771818951	425.025687486440	314.610133978496	1006.908641573152	307.319414132654	265.537091128335	1070.323956182721	196.937306841428	328.889052814983	968.116284645457	383.805119363422	554.354053764048	863.625832333507	318.639965589644	623.158193448724	863.754637625384	212.117544018203	565.376368755326	679.763481938560	91.487212570061	546.996815646508	857.885648254138	103.369239524957	579.686412935663	760.101709186007	63.190125829287	618.726604512742	962.465272743861	36.907644191493	606.139679716330	953.082081433798	38.336138667878	374.008819640047	1022.312918682440	35.306212906505	289.125085848687	1106.157785180209	97.681667437360	312.432154751663	1233.210284243163	48.272549398013	277.001234977579	879.458388867894	1067.504775869906	162.113346677089	980.027680669250	824.762332749219	137.436973711224	1094.022346419916	1098.775682898944	702.397201959331	1275.435754236714	962.557309030035	580.454669427449	
37	17.227714285714	809.890276781123	1000.453107687036	479.114899219648	946.838762296425	1419.901341342794	256.898250146653	1077.714568493764	1361.714222675468	400.907596759717	1023.893175921198	1442.463581950361	583.305956193428	955.792220927821	1489.612121985564	410.245705693231	1050.579710751958	936.466696469850	567.138500828533	1004.629914808381	957.591462867126	295.918402722830	1070.073435026224	725.938495233072	539.410669588142	986.930704702256	619.992163092197	609.468354376803	1053.689545300641	559.423686083999	526.875101920884	1042.791915095128	456.203771164482	544.072487690215	1080.190863189327	761.723096959233	318.942060649601	1003.525890526339	635.849445310097	262.270788615614	1104.178222353040	569.842103192179	315.035267101429	1114.324445732742	499.663147369567	321.281070173598	1090.166611945475	424.711550718584	313.589423731784	1002.749372850037	307.141629828075	264.897809798875	1065.623306474841	196.738682787318	328.533814625340	976.156827182894	384.414276116390	553.696453509994	869.211236742595	322.840796443348	622.092761297103	866.731775322104	215.890674163113	565.262167709329	679.076958047951	102.116895322376	546.740306039406	857.387327371589	105.621815005259	579.809700947368	757.811930229053	69.961016424775	618.517042584607	958.011143499443	36.289610526312	606.080621275640	947.999118806305	38.304599200973	373.928474986472	1017.194256784450	35.247571992705	289.019265606771	1101.053515652530	97.591416463141	312.315192074810	1228.144864309404	48.109355004781	276.840461870515	885.132294241869	1067.733995539784	157.287589697987	989.574442713098	826.616759837297	132.818826294781	1089.723489411983	1099.173316985693	701.190952161581	1266.100852734294	953.223128216002	582.290377770018	
38	17.240428571429	809.775906308038	1001.141567075115	476.446640100913	948.624505516594	1420.402802842798	254.162732149105	1078.520249940767	1362.187458386360	399.009857490139	1023.781924536566	1443.251644290496	580.980091913811	956.703755801549	1490.259418617137	407.371140020193	1050.178463930495	936.822169069085	565.433893594402	1005.181859426678	958.430038008272	294.034716609811	1074.500362164874	728.022295951690	537.298755337516	994.291575522772	620.417748816059	607.619918869169	1063.114891649790	560.926932174968	525.316818927728	1053.575947744343	456.297688590799	543.522286264124	1079.100756534205	761.034809437378	316.250787963069	1000.942460388180	635.865985672106	260.701017541393	1100.850444568173	569.080350460278	313.635575265760	1110.293062250361	499.154335230827	320.346080754404	1086.090674200876	424.369358319243	312.694305507092	998.562701606260	306.909027467221	264.307997412444	1060.876170867642	196.506819932382	328.258091839781	984.834298179488	385.301753215450	552.957595941426	875.612652791609	327.362203695320	620.998724757424	870.408340425139	220.108592340741	565.078694382769	679.288878627791	113.794923556816	546.412332973333	857.367527327828	108.320861587320	579.865365810533	756.086558678444	77.673301901365	618.279248149682	953.605234950612	35.560636539908	606.062646018018	942.875553262473	38.265899696001	373.876664018723	1012.035975324920	35.180560142443	288.944718104649	1095.935646079983	97.451164207296	312.247439776003	1223.058278481265	47.836471390219	276.712222029792	890.831134114671	1068.022751197207	152.469445129153	999.058344200799	828.551431625092	128.338184463150	1085.021056704364	1099.409299700685	700.116161187985	1256.175382824186	943.835492960532	584.889685548821	
39	17.253142857143	809.561747795191	1001.679116924680	473.831343163479	950.468026677791	1420.842588197629	251.576691810151	1079.270961134316	1362.559129854851	397.344696257618	1023.487946136659	1443.860409669475	578.883541734349	957.553557205727	1490.827530821528	404.653929270778	1049.697021520212	937.043986081884	563.876122505808	1005.663617455550	959.213646617266	292.254630836353	1079.094985234700	730.310321790574	535.242530994018	1001.951920080646	621.038517335189	605.845215424421	1072.819441926008	562.744086463709	523.824728391271	1064.671884504197	456.827511610750	542.831017716951	1077.862150075551	760.311046762835	314.029044176452	998.572236898919	635.950274203750	259.131242097443	1097.530698982838	568.349009337739	312.556757791743	1106.239256662753	498.611334486904	319.578223501931	1082.000431819011	424.002180427589	311.908741608475	994.433031914303	306.640750363689	263.733095759811	1056.138861480297	196.249537372175	328.047135834907	993.994360572330	386.489286044196	552.107738155678	882.719239812847	332.167117912810	619.880038289463	874.714827446020	224.744109022147	564.816578012024	680.436073905504	126.392360971659	546.029553448852	857.805244789555	111.496677234097	579.857654415950	754.976430303295	86.267088901515	618.019712489842	949.266918287648	34.705295345717	606.085503596382	937.734034202096	38.228502647484	373.838351896932	1006.864315675889	35.116075640626	288.888966766330	1090.825380372543	97.280312242392	312.217611474133	1217.972250097289	47.481966690511	276.612081071504	896.566803685292	1068.358496956764	147.687955170023	1008.479769846605	830.546555451642	124.032318195088	1079.890782884995	1099.444598761949	699.185642278028	1245.677514352076	934.459895485316	588.282522728041	
40	17.265857142857	809.264434197815	1002.061521082314	471.288329369915	952.328536469732	1421.227185209904	249.174280077651	1079.955686881476	1362.827680580154	395.916970805505	1023.032589249414	1444.279318450540	577.034750715624	958.345781092581	1491.317835591392	402.136543144653	1049.154328012692	937.168897899783	562.440117133817	1006.067581288652	959.931828982524	290.557221297572	1083.748874925811	732.798935355067	533.241507860762	1009.767096836360	621.887519165743	604.136600282645	1082.612778338870	564.895900913777	522.373636270011	1075.908418730652	457.811743384535	541.972664596178	1076.550140090310	759.606423196263	312.247971807813	996.440798626106	636.092155661775	257.571724760496	1094.298415368110	567.658829028882	311.718282378869	1102.260799120405	498.048752850887	318.935845426406	1077.982615207613	423.613451859453	311.212735881900	990.413227364243	306.356915683128	263.156637525626	1051.453277685348	195.975640289430	327.886222669000	1003.475022296461	387.993938494041	551.131445230047	890.396341362090	337.213045183283	618.744369168833	879.570164561014	229.753268277073	564.477949369775	682.526453123842	139.719905160462	545.618797474815	858.688473638364	115.149629184847	579.797520290672	754.527275548412	95.617355528547	617.746256765048	945.039248107621	33.735182960218	606.129905913721	932.591513503647	38.198098395535	373.802268393008	1001.698532455595	35.062035492962	288.842423275132	1085.735502114632	97.098199839498	312.214103711712	1212.900001728554	47.078531888235	276.534355597287	902.354893320122	1068.742770348898	142.974019946335	1017.843026064769	832.595215845900	119.944061657852	1074.318745163615	1099.265814019983	698.407807592626	1234.622897306456	925.160271049977	592.494198849093	
